<svg xmlns="http://www.w3.org/2000/svg" width="112" height="112" viewBox="0 0 112 112.15487"><path fill="#ea0029" d="M52.553 105.704c-27.83 0-50.469-22.264-50.469-49.627S24.724 6.474 52.553 6.474c27.827 0 50.468 22.264 50.468 49.627s-22.641 49.626-50.468 49.626zm0-89.356c-22.287 0-40.404 17.816-40.404 39.73s18.117 39.729 40.404 39.729c22.284 0 40.403-17.815 40.403-39.73 0-21.913-18.119-39.729-40.403-39.729" style="stroke-width:19.6357"/><path fill="#ffafa3" d="M49.474 92.035c-9.758-.816-18.64-5.31-24.962-12.67-6.325-7.358-9.355-16.697-8.55-26.315.829-9.594 5.4-18.327 12.884-24.546 7.483-6.217 16.98-9.198 26.76-8.406 10.136.838 19.231 5.612 25.578 13.414l-2.25 1.77c-5.873-7.197-14.233-11.597-23.587-12.366-9-.746-17.762 2.001-24.655 7.732-6.89 5.728-11.107 13.762-11.865 22.635C17.265 71.565 31.12 87.68 49.709 89.216Z" style="stroke-width:19.6357"/><path fill="#ffafa3" d="M52.553 112.155c-22.974 0-43.6-13.437-52.553-34.256l2.652-1.094c8.503 19.747 28.088 32.532 49.9 32.532 29.864 0 54.162-23.893 54.162-53.26S82.415 2.817 52.553 2.817V0c31.45 0 57.028 25.151 57.028 56.077 0 30.927-25.577 56.078-57.028 56.078" style="stroke-width:19.6357"/></svg>
